<svg width="368" height="176" viewBox="0 0 368 176" fill="none" xmlns="http://www.w3.org/2000/svg">
<path d="M240 152C240 165.254 229.254 176 216 176C202.746 176 192 165.254 192 152C192 138.746 202.746 128 216 128C229.254 128 240 138.746 240 152Z" fill="#ED3225"/>
<path d="M231.2 151.454L229.257 137.6L216.346 142.837L221.462 145.801L216.626 154.214L208.254 149.358L200 163.717L204.624 166.4L210.208 156.684L218.581 161.541L226.084 148.486L231.2 151.451V151.454Z" fill="white"/>
<path d="M128 152C128 138.745 138.745 128 152 128C165.255 128 176 138.745 176 152C176 165.255 165.255 176 152 176C138.745 176 128 165.255 128 152Z" fill="white"/>
<path fill-rule="evenodd" clip-rule="evenodd" d="M164.786 148.459V148.459H164.786C164.788 148.467 164.789 148.475 164.791 148.483C164.797 148.528 164.8 148.575 164.8 148.622V156.178C164.8 156.225 164.797 156.271 164.791 156.318C164.79 156.325 164.788 156.332 164.787 156.339L164.784 156.351L164.782 156.363C164.777 156.394 164.771 156.423 164.764 156.453C164.762 156.457 164.761 156.461 164.76 156.465C164.758 156.472 164.756 156.478 164.753 156.485V156.485L164.753 156.485L164.75 156.495L164.746 156.504L164.743 156.515L164.743 156.516C164.736 156.538 164.728 156.56 164.719 156.583C164.712 156.6 164.704 156.617 164.695 156.634C164.684 156.658 164.673 156.681 164.659 156.705C164.653 156.716 164.646 156.727 164.639 156.738L164.639 156.738V156.738L164.629 156.754C164.615 156.776 164.6 156.797 164.584 156.818C164.572 156.835 164.56 156.85 164.547 156.865C164.53 156.884 164.513 156.904 164.494 156.922L164.493 156.923C164.479 156.937 164.466 156.951 164.452 156.964C164.432 156.982 164.412 156.999 164.392 157.015L164.377 157.026C164.366 157.035 164.355 157.044 164.343 157.052C164.34 157.054 164.337 157.056 164.335 157.058C164.332 157.061 164.329 157.063 164.326 157.065L152.991 164.621C152.812 164.74 152.606 164.8 152.4 164.8C152.194 164.8 151.988 164.74 151.809 164.621L140.475 157.065C140.472 157.063 140.469 157.061 140.466 157.058C140.463 157.056 140.46 157.054 140.457 157.052C140.44 157.04 140.425 157.028 140.409 157.015C140.388 156.999 140.368 156.982 140.349 156.964C140.334 156.951 140.32 156.937 140.306 156.922C140.287 156.904 140.27 156.884 140.253 156.865C140.24 156.85 140.228 156.835 140.216 156.818C140.201 156.797 140.186 156.776 140.172 156.754C140.161 156.738 140.151 156.721 140.141 156.705C140.128 156.681 140.116 156.658 140.105 156.634L140.097 156.617C140.091 156.605 140.086 156.594 140.081 156.583C140.072 156.559 140.064 156.535 140.056 156.512L140.054 156.504L140.048 156.489C140.044 156.477 140.04 156.465 140.037 156.453C140.029 156.423 140.024 156.394 140.019 156.363L140.016 156.351C140.014 156.34 140.011 156.329 140.01 156.318C140.004 156.271 140 156.225 140 156.178V148.622C140 148.575 140.004 148.528 140.01 148.483C140.011 148.471 140.014 148.46 140.016 148.449L140.019 148.437V148.437C140.024 148.406 140.029 148.376 140.037 148.348C140.04 148.335 140.044 148.323 140.048 148.311L140.054 148.296C140.062 148.269 140.07 148.244 140.081 148.218C140.088 148.201 140.097 148.183 140.104 148.167V148.167L140.105 148.166C140.116 148.141 140.128 148.118 140.141 148.096C140.151 148.079 140.161 148.062 140.172 148.046C140.186 148.024 140.201 148.002 140.216 147.981C140.228 147.965 140.24 147.95 140.253 147.935C140.27 147.915 140.287 147.896 140.306 147.877L140.314 147.869C140.326 147.857 140.337 147.846 140.349 147.836C140.368 147.818 140.388 147.801 140.409 147.785C140.425 147.773 140.44 147.76 140.457 147.748C140.46 147.747 140.463 147.744 140.466 147.742V147.742C140.469 147.74 140.472 147.737 140.475 147.735L151.809 140.179C152.168 139.94 152.633 139.94 152.991 140.179L164.326 147.735C164.329 147.737 164.332 147.74 164.335 147.742L164.337 147.744C164.339 147.746 164.341 147.747 164.343 147.748L164.355 147.757L164.364 147.764L164.377 147.774L164.392 147.785C164.412 147.801 164.432 147.818 164.452 147.836C164.462 147.845 164.472 147.855 164.482 147.865L164.494 147.877C164.513 147.896 164.53 147.915 164.547 147.935C164.56 147.95 164.572 147.965 164.584 147.981C164.6 148.002 164.615 148.024 164.629 148.046L164.637 148.06C164.645 148.071 164.652 148.083 164.659 148.096C164.673 148.118 164.684 148.141 164.695 148.166C164.704 148.183 164.712 148.2 164.719 148.218C164.729 148.244 164.738 148.269 164.746 148.296C164.749 148.302 164.751 148.308 164.753 148.315C164.757 148.326 164.761 148.336 164.764 148.348C164.771 148.376 164.777 148.406 164.782 148.437L164.784 148.447L164.786 148.459ZM161.815 148.623L153.466 143.057V148.028L158.086 151.118L161.815 148.623ZM151.334 143.057V148.028L146.715 151.118L142.984 148.623L151.334 143.057ZM144.798 152.4L142.131 150.617V154.183L144.798 152.4ZM151.334 161.743L142.984 156.177L146.715 153.683L151.334 156.773V161.743ZM148.631 152.4L152.4 154.921L156.17 152.4L152.4 149.879L148.631 152.4ZM153.466 161.743V156.773L158.086 153.683L161.815 156.177L153.466 161.743ZM160.003 152.4L162.669 154.183V150.617L160.003 152.4Z" fill="#0B0B0A"/>
<path d="M320 90C320 76.7452 330.745 66 344 66C357.255 66 368 76.7452 368 90C368 103.255 357.255 114 344 114C330.745 114 320 103.255 320 90Z" fill="#F26798"/>
<path fill-rule="evenodd" clip-rule="evenodd" d="M356.8 89.9822C356.8 90.8478 356.712 91.7123 356.539 92.5549C356.37 93.3775 356.12 94.1851 355.793 94.9572C355.473 95.7155 355.076 96.4464 354.612 97.1279C354.155 97.8051 353.629 98.4405 353.051 99.0196C352.471 99.5963 351.834 100.121 351.157 100.58C350.473 101.041 349.741 101.437 348.982 101.758C348.209 102.084 347.4 102.334 346.578 102.502C345.734 102.676 344.866 102.764 343.999 102.764C343.132 102.764 342.264 102.676 341.422 102.502C340.599 102.334 339.789 102.084 339.017 101.758C338.258 101.437 337.525 101.041 336.842 100.58C336.165 100.121 335.527 99.5963 334.949 99.0196C334.37 98.4405 333.844 97.8051 333.386 97.1279C332.925 96.4464 332.528 95.7155 332.206 94.9572C331.879 94.1851 331.628 93.3775 331.459 92.5549C331.288 91.7123 331.2 90.8478 331.2 89.9822C331.2 89.1159 331.288 88.2496 331.459 87.4089C331.628 86.5862 331.879 85.7774 332.206 85.0066C332.528 84.2477 332.925 83.5162 333.386 82.8346C333.844 82.1568 334.37 81.5227 334.949 80.9429C335.527 80.3661 336.165 79.8425 336.842 79.3844C337.525 78.9219 338.258 78.5256 339.017 78.2036C339.789 77.8771 340.599 77.6268 341.422 77.4596C342.264 77.2874 343.132 77.2 344 77.2C344.866 77.2 345.734 77.2874 346.578 77.4596C347.4 77.6269 348.209 77.8771 348.982 78.2036C349.741 78.5256 350.473 78.9219 351.157 79.3844C351.834 79.8425 352.471 80.3661 353.051 80.9429C353.629 81.5227 354.155 82.1568 354.612 82.8346C355.076 83.5162 355.473 84.2477 355.793 85.0066C356.12 85.7774 356.37 86.5862 356.539 87.4089C356.712 88.2496 356.8 89.1159 356.8 89.9822ZM339.335 80.109C336.287 81.5465 334.012 84.3513 333.303 87.7316L333.313 87.7317C333.687 87.7351 338.201 87.7769 343.394 86.399C341.502 83.0424 339.481 80.3032 339.335 80.109ZM333.077 89.634C333.271 89.6414 338.672 89.7625 344.3 88.0799C344.613 88.6928 344.913 89.3144 345.187 89.9348C345.043 89.976 344.898 90.0184 344.756 90.0659C338.857 91.9707 335.865 97.2702 335.869 97.2758C334.128 95.3428 333.068 92.7864 333.068 89.9822C333.068 89.9013 333.071 89.8221 333.074 89.7423V89.7422C333.075 89.7063 333.076 89.6703 333.077 89.634ZM351.219 81.7898C349.294 80.0953 346.767 79.0674 343.999 79.0674C343.111 79.0674 342.249 79.1748 341.424 79.3732L341.441 79.397H341.442C341.7 79.7434 343.692 82.4073 345.51 85.7406C349.601 84.2091 351.166 81.8684 351.218 81.7913L351.219 81.7898ZM345.906 91.752L345.932 91.7435C347.47 95.7354 348.105 99.0783 348.267 100.032C346.955 100.589 345.513 100.897 343.999 100.897C341.464 100.897 339.137 100.028 337.281 98.5865C337.304 98.5371 339.41 94.0124 345.86 91.7672C345.875 91.7617 345.89 91.7568 345.906 91.752ZM350.108 99.0346C352.562 97.3807 354.306 94.7543 354.792 91.7122C354.567 91.6398 351.509 90.673 347.98 91.2379C349.414 95.1725 349.997 98.3768 350.108 99.0346ZM347.078 88.9499C346.851 88.4174 346.605 87.8876 346.352 87.3671C350.64 85.6183 352.398 83.1098 352.441 83.049L352.441 83.0481C353.975 84.9073 354.902 87.2822 354.927 89.8698C354.924 89.8692 354.92 89.8683 354.914 89.8671C354.627 89.8074 350.997 89.0525 347.314 89.5153C347.237 89.3281 347.158 89.1409 347.078 88.9499Z" fill="white"/>
<path d="M256 88C256 74.7452 266.745 64 280 64C293.255 64 304 74.7452 304 88C304 101.255 293.255 112 280 112C266.745 112 256 101.255 256 88Z" fill="#E84352"/>
<path fill-rule="evenodd" clip-rule="evenodd" d="M269.38 76H290.62C292.706 76 294.4 77.7053 294.4 79.8089V90.3605C294.4 90.5563 294.385 90.7488 294.356 90.9368C294.385 91.2178 294.4 91.5018 294.4 91.7889C294.4 97.8371 287.953 102.742 280 102.742C272.047 102.742 265.6 97.8371 265.6 91.7889C265.6 91.5019 265.614 91.2178 265.644 90.9368C265.615 90.7487 265.6 90.5563 265.6 90.3605V79.8088C265.6 77.7059 267.292 76 269.38 76ZM281.393 94.0445L288.831 86.6077C289.578 85.8597 289.578 84.6506 288.831 83.904C288.085 83.1589 286.872 83.1569 286.127 83.904L280 90.0309L273.873 83.904C273.125 83.1558 271.916 83.1569 271.17 83.904C270.424 84.6495 270.423 85.8609 271.17 86.6077L278.606 94.0445C278.997 94.4354 279.513 94.6218 280.023 94.6042C280.519 94.6084 281.015 94.4223 281.393 94.0445Z" fill="white"/>
<path d="M216 112C229.255 112 240 101.255 240 88C240 74.7452 229.255 64 216 64C202.745 64 192 74.7452 192 88C192 101.255 202.745 112 216 112Z" fill="#FF5700"/>
<path fill-rule="evenodd" clip-rule="evenodd" d="M233.6 87.6875C233.6 85.4925 231.806 83.7065 229.601 83.7065C228.593 83.7065 227.673 84.0836 226.969 84.6993C224.463 83.097 221.151 82.0544 217.483 81.8719L219.412 75.8024L224.674 77.0362C224.733 78.8043 226.193 80.226 227.983 80.226C229.811 80.226 231.298 78.7459 231.298 76.926C231.298 75.1062 229.811 73.6261 227.983 73.6261C226.656 73.6261 225.512 74.4088 224.982 75.5327L219.069 74.1476C218.677 74.0562 218.28 74.2807 218.16 74.6629L215.876 81.8481C211.971 81.9244 208.428 82.9744 205.773 84.6468C205.077 84.0614 204.178 83.7065 203.199 83.7065C200.994 83.7069 199.2 85.4925 199.2 87.6875C199.2 89.0851 199.929 90.3138 201.026 91.0236C200.97 91.3801 200.94 91.7413 200.94 92.1067C200.94 97.7675 207.843 102.373 216.33 102.373C224.816 102.373 231.72 97.7675 231.72 92.1067C231.72 91.7678 231.694 91.4327 231.646 91.1011C232.813 90.4068 233.6 89.1388 233.6 87.6875ZM227.983 75.1603C228.962 75.1603 229.758 75.9531 229.758 76.9272C229.758 77.9013 228.962 78.6937 227.983 78.6937C227.005 78.6937 226.209 77.9013 226.209 76.9272C226.209 75.9531 227.005 75.1603 227.983 75.1603ZM203.198 85.2399C201.843 85.2399 200.74 86.3382 200.74 87.6875C200.74 88.3686 201.021 88.9847 201.474 89.4287C202.053 88.0016 203.08 86.6958 204.452 85.5863C204.084 85.3679 203.656 85.2399 203.198 85.2399ZM230.18 92.1075C230.18 96.9222 223.966 100.84 216.33 100.84C208.693 100.84 202.48 96.9226 202.48 92.1075C202.48 91.9378 202.489 91.7705 202.504 91.6035C202.551 91.0917 202.669 90.5912 202.85 90.1063C203.32 88.8492 204.221 87.6957 205.451 86.7122C205.844 86.3973 206.271 86.1 206.727 85.8225C209.219 84.3082 212.604 83.3741 216.33 83.3741C220.109 83.3741 223.54 84.3346 226.04 85.8879C226.498 86.1716 226.923 86.476 227.315 86.7978C228.496 87.7665 229.359 88.8959 229.815 90.1238C229.994 90.6103 230.113 91.1112 230.158 91.6242C230.171 91.7849 230.18 91.9452 230.18 92.1075ZM228.266 85.6357C229.637 86.7593 230.662 88.0782 231.224 89.5202C231.735 89.0718 232.059 88.4172 232.06 87.6875C232.06 86.3378 230.958 85.2399 229.602 85.2399C229.109 85.2399 228.651 85.3862 228.266 85.6357Z" fill="white"/>
<path d="M213.617 90.2616C213.617 88.9687 212.564 87.884 211.265 87.884C209.966 87.884 208.877 88.9687 208.877 90.2616C208.877 91.5541 209.967 92.6037 211.265 92.6037C212.564 92.6022 213.617 91.5541 213.617 90.2616Z" fill="white"/>
<path d="M221.571 87.8833C220.272 87.8833 219.179 88.9676 219.179 90.2605C219.179 91.5537 220.272 92.6026 221.571 92.6026C222.87 92.6026 223.924 91.5545 223.924 90.2605C223.923 88.9668 222.87 87.8833 221.571 87.8833Z" fill="white"/>
<path d="M220.906 95.9379C220.035 96.8042 218.568 97.2249 216.418 97.2249C216.411 97.2249 216.405 97.2269 216.399 97.2269C216.393 97.2269 216.387 97.2249 216.381 97.2249C214.231 97.2249 212.763 96.8042 211.893 95.9379C211.593 95.6382 211.105 95.6382 210.804 95.9379C210.503 96.238 210.503 96.7233 210.804 97.0218C211.977 98.1901 213.802 98.7587 216.381 98.7587C216.387 98.7587 216.393 98.7564 216.399 98.7564C216.405 98.7564 216.411 98.7587 216.418 98.7587C218.997 98.7587 220.822 98.1901 221.996 97.0226C222.297 96.7225 222.297 96.2376 221.997 95.9387C221.695 95.639 221.207 95.639 220.906 95.9379Z" fill="white"/>
<path d="M128 88C128 74.7452 138.745 64 152 64C165.255 64 176 74.7452 176 88C176 101.255 165.255 112 152 112C138.745 112 128 101.255 128 88Z" fill="#FF0000"/>
<path d="M164.265 82.0732C163.971 80.9422 163.103 80.0516 162.002 79.7493C160.005 79.2 152 79.2 152 79.2C152 79.2 143.995 79.2 141.998 79.7493C140.897 80.0516 140.029 80.9422 139.735 82.0732C139.2 84.1231 139.2 88.4 139.2 88.4C139.2 88.4 139.2 92.6768 139.735 94.7268C140.029 95.8578 140.897 96.7484 141.998 97.0508C143.995 97.6 152 97.6 152 97.6C152 97.6 160.005 97.6 162.002 97.0508C163.103 96.7484 163.971 95.8578 164.265 94.7268C164.8 92.6768 164.8 88.4 164.8 88.4C164.8 88.4 164.8 84.1231 164.265 82.0732Z" fill="white"/>
<path d="M149.6 92.8V84.8L156 88.8001L149.6 92.8Z" fill="#FF0000"/>
<path d="M256 152C256 138.745 266.745 128 280 128C293.255 128 304 138.745 304 152C304 165.255 293.255 176 280 176C266.745 176 256 165.255 256 152Z" fill="#1769FF"/>
<path fill-rule="evenodd" clip-rule="evenodd" d="M279.67 148.045C279.67 147.12 279.428 146.327 278.945 145.663C278.14 144.582 276.774 144.028 274.845 144H267.2V159.607H274.329C275.132 159.607 275.876 159.538 276.564 159.397C277.252 159.255 277.846 158.995 278.35 158.613C278.799 158.281 279.172 157.871 279.47 157.385C279.941 156.651 280.176 155.821 280.176 154.896C280.176 153.999 279.97 153.236 279.561 152.61C279.147 151.981 278.539 151.523 277.732 151.232C278.263 150.964 278.665 150.667 278.939 150.344C279.428 149.764 279.67 148.997 279.67 148.045ZM290.338 146.67H283.558V144.728H290.338V146.67ZM284.349 152.694C284.46 151.943 284.732 151.347 285.164 150.908C285.596 150.468 286.207 150.249 286.99 150.249C287.713 150.249 288.316 150.455 288.807 150.869C289.292 151.286 289.565 151.892 289.621 152.694H284.349ZM289.74 148.3C290.557 148.66 291.23 149.23 291.76 150.008C292.243 150.694 292.553 151.49 292.695 152.394C292.778 152.923 292.811 153.689 292.797 154.685H284.273C284.324 155.842 284.728 156.655 285.498 157.119C285.965 157.409 286.527 157.554 287.186 157.554C287.88 157.554 288.447 157.378 288.882 157.026C289.121 156.834 289.332 156.57 289.513 156.231H292.636C292.553 156.914 292.174 157.611 291.503 158.318C290.455 159.439 288.988 160 287.102 160C285.544 160 284.169 159.528 282.982 158.58C281.788 157.635 281.195 156.093 281.195 153.961C281.195 151.961 281.733 150.427 282.806 149.359C283.882 148.294 285.274 147.758 286.989 147.758C288.008 147.758 288.924 147.94 289.74 148.3ZM270.353 156.898V152.736H274.249C274.926 152.742 275.454 152.831 275.831 153C276.504 153.304 276.838 153.861 276.838 154.675C276.838 155.634 276.492 156.282 275.798 156.623C275.417 156.806 274.881 156.898 274.195 156.898H270.353ZM270.353 146.71V150.153H274.201C274.885 150.153 275.444 150.024 275.874 149.766C276.302 149.508 276.517 149.05 276.517 148.397C276.517 147.668 276.234 147.188 275.668 146.954C275.177 146.792 274.554 146.71 273.797 146.71H270.353Z" fill="white"/>
<path d="M128 24C128 10.7452 138.745 0 152 0C165.255 0 176 10.7452 176 24C176 37.2548 165.255 48 152 48C138.745 48 128 37.2548 128 24Z" fill="white"/>
<path fill-rule="evenodd" clip-rule="evenodd" d="M151.61 23.0096L141.161 18.2205C140.946 18.1221 140.946 17.9612 141.161 17.8628L151.61 13.0738C151.824 12.9754 152.176 12.9754 152.39 13.0738L162.839 17.8628C163.054 17.9612 163.054 18.1221 162.839 18.2205L152.39 23.0096C152.176 23.1079 151.824 23.1079 151.61 23.0096ZM162.839 23.693L160.336 22.5504C160.122 22.4524 159.771 22.4524 159.556 22.5504L152.39 25.8221C152.176 25.9201 151.824 25.9201 151.61 25.8221L144.444 22.5504C144.229 22.4524 143.878 22.4524 143.664 22.5504L141.161 23.693C140.946 23.791 140.946 23.9514 141.161 24.0494L151.61 28.8201C151.824 28.9181 152.176 28.9181 152.39 28.8201L162.839 24.0494C163.054 23.9514 163.054 23.791 162.839 23.693ZM162.839 29.7995L160.336 28.6569C160.122 28.5589 159.771 28.5589 159.556 28.6569L152.39 31.9286C152.176 32.0265 151.824 32.0265 151.61 31.9286L144.444 28.6569C144.229 28.5589 143.878 28.5589 143.664 28.6569L141.161 29.7995C140.946 29.8975 140.946 30.0578 141.161 30.1559L151.61 34.9265C151.824 35.0245 152.176 35.0245 152.39 34.9265L162.839 30.1559C163.054 30.0578 163.054 29.8975 162.839 29.7995Z" fill="black"/>
<path d="M192 24C192 10.7452 202.745 0 216 0C229.255 0 240 10.7452 240 24C240 37.2548 229.255 48 216 48C202.745 48 192 37.2548 192 24Z" fill="#0077B5"/>
<path fill-rule="evenodd" clip-rule="evenodd" d="M209.319 14.8227C209.319 16.3918 208.138 17.6473 206.241 17.6473H206.206C204.381 17.6473 203.2 16.3918 203.2 14.8227C203.2 13.2204 204.416 12 206.277 12C208.138 12 209.284 13.2204 209.319 14.8227ZM208.961 19.8778V36.2196H203.522V19.8778H208.961ZM228.575 36.2196L228.575 26.8497C228.575 21.8303 225.892 19.4941 222.313 19.4941C219.425 19.4941 218.133 21.0802 217.411 22.1929V19.8783H211.971C212.043 21.4117 211.971 36.22 211.971 36.22H217.411V27.0934C217.411 26.605 217.446 26.1178 217.59 25.7681C217.983 24.7924 218.878 23.7822 220.381 23.7822C222.349 23.7822 223.137 25.2807 223.137 27.4767V36.2196H228.575Z" fill="white"/>
<path d="M304 24C304 37.2548 293.255 48 280 48C266.745 48 256 37.2548 256 24C256 10.7452 266.745 0 280 0C293.255 0 304 10.7452 304 24Z" fill="#DA552F"/>
<path fill-rule="evenodd" clip-rule="evenodd" d="M271.75 12L283.495 12.0002V12C288.192 12 292 15.7608 292 20.4C292 25.0392 288.192 28.8 283.495 28.8V28.8002H276.61V36H271.75V12ZM283.495 24.0002V24C285.508 24 287.14 22.3882 287.14 20.4C287.14 18.4118 285.508 16.8 283.495 16.8V16.8002H276.61V24.0002H283.495Z" fill="white"/>
<path d="M320 24C320 10.7452 330.745 0 344 0C357.255 0 368 10.7452 368 24C368 37.2548 357.255 48 344 48C330.745 48 320 37.2548 320 24Z" fill="#FF1A03"/>
<path fill-rule="evenodd" clip-rule="evenodd" d="M335.971 14.8297H342.239L342.239 9.59998H335.971C332.458 9.59998 329.6 12.4582 329.6 15.9712V22.0007H334.83V15.9712C334.83 15.3417 335.342 14.8297 335.971 14.8297ZM352.029 38.2197C355.542 38.2197 358.4 35.3614 358.4 31.8484V25.819H353.17V31.8484C353.17 32.4779 352.658 32.9899 352.029 32.9899H345.761V38.2197H352.029Z" fill="white"/>
<path d="M344 176C357.255 176 368 165.255 368 152C368 138.745 357.255 128 344 128C330.745 128 320 138.745 320 152C320 165.255 330.745 176 344 176Z" fill="#008373"/>
<path d="M335.2 137.6L340.953 139.624V159.874L349.056 155.196L345.084 153.332L342.577 147.094L355.345 151.58V158.101L340.956 166.4L335.2 163.198V137.6Z" fill="white"/>
<path d="M64 24C64 10.7452 74.7452 0 88 0C101.255 0 112 10.7452 112 24C112 37.2548 101.255 48 88 48C74.7452 48 64 37.2548 64 24Z" fill="white"/>
<path d="M76.8682 29.5623C76.6206 29.9661 76.3425 30.4347 76.1063 30.808C75.8949 31.1653 76.0084 31.626 76.3615 31.8442L81.3139 34.8919C81.4878 34.9992 81.6974 35.0322 81.8958 34.9835C82.0943 34.9348 82.2648 34.8084 82.3692 34.6328C82.5673 34.3014 82.8225 33.8709 83.1006 33.4099C85.0625 30.1719 87.0358 30.568 90.5939 32.2671L95.5044 34.6023C95.6904 34.6908 95.9043 34.7003 96.0973 34.6285C96.2904 34.5568 96.4462 34.4099 96.5292 34.2214L98.8873 28.888C99.0539 28.5071 98.8843 28.063 98.5063 27.8899C97.4701 27.4023 95.4092 26.4309 93.5539 25.5357C86.8796 22.2938 81.2073 22.5033 76.8682 29.5623Z" fill="url(#paint0_linear_8_91)"/>
<path d="M99.0739 17.4595C99.3216 17.0557 99.5996 16.5871 99.8358 16.2138C100.047 15.8565 99.9338 15.3958 99.5806 15.1776L94.6282 12.13C94.453 12.0119 94.2366 11.972 94.0307 12.0196C93.8248 12.0673 93.648 12.1983 93.5425 12.3814C93.3444 12.7128 93.0892 13.1433 92.8111 13.6043C90.8492 16.8424 88.8758 16.4462 85.3177 14.7471L80.4225 12.4233C80.2365 12.3348 80.0226 12.3253 79.8296 12.3971C79.6365 12.4689 79.4807 12.6158 79.3977 12.8043L77.0396 18.1376C76.873 18.5185 77.0426 18.9627 77.4206 19.1357C78.4568 19.6233 80.5177 20.5947 82.373 21.49C89.0625 24.7281 94.7349 24.5109 99.0739 17.4595Z" fill="url(#paint1_linear_8_91)"/>
<path d="M88 112C101.255 112 112 101.255 112 88C112 74.7452 101.255 64 88 64C74.7452 64 64 74.7452 64 88C64 101.255 74.7452 112 88 112Z" fill="#0064DD"/>
<path fill-rule="evenodd" clip-rule="evenodd" d="M94.6732 77.3079L99.76 76.24V100.502H94.8342V98.5448C93.321 100.045 91.7756 100.6 89.7152 100.6C87.6225 100.6 85.8195 99.9149 84.3063 98.5448C82.3102 96.7506 81.28 94.4018 81.28 91.6616C81.28 89.1497 82.2459 86.8988 84.0488 85.1372C85.6586 83.5387 87.6225 82.7232 89.8117 82.7232C91.9044 82.7232 93.5142 83.4409 94.6732 84.9415V77.3079ZM86.3669 91.629C86.3669 94.0757 88.2342 95.9351 90.842 95.9351C93.0313 95.9351 94.8664 94.1083 94.8664 91.6942C94.8664 89.1823 93.0313 87.2903 90.6488 87.2903C88.2342 87.2903 86.3669 89.2802 86.3669 91.629Z" fill="#FFFFFE"/>
<path d="M64 152C64 138.745 74.7452 128 88 128C101.255 128 112 138.745 112 152C112 165.255 101.255 176 88 176C74.7452 176 64 165.255 64 152Z" fill="#00B488"/>
<path d="M87.3905 167.015C86.2324 166.831 85.2572 165.971 83.9162 164.62C79.8933 160.813 75.7486 150.619 75.2 142.022H80.0762C81.3561 151.049 83.3676 157.19 87.6952 162.164C89.8286 160.137 91.5961 157.313 92.8152 155.04C90.4381 153.935 89.0972 151.847 88.3658 149.943C86.1105 144.048 88.061 137.784 94.461 137.6C99.1543 137.6 100.739 141.162 100.8 144.539C100.739 146.566 100.434 147.978 99.8248 149.698C98.4838 150.005 97.0819 149.636 96.2286 149.022C95.5581 148.531 95.3143 148.777 95.741 147.426C96.2286 145.706 96.4114 141.96 94.0953 141.899C92.5105 142.021 92.0839 143.987 92.0839 145.338C92.5105 150.864 96.0458 153.321 100.739 152.093V155.654C99.2153 156.023 99.1543 156.023 97.2648 156.084C96.1677 158.664 90.1943 167.568 87.3296 167.015H87.3905Z" fill="white"/>
<path d="M0 24C0 10.7452 10.7452 0 24 0C37.2548 0 48 10.7452 48 24C48 37.2548 37.2548 48 24 48C10.7452 48 0 37.2548 0 24Z" fill="#FF0000"/>
<path d="M36.265 18.0732C35.9706 16.9422 35.1031 16.0516 34.0016 15.7493C32.0054 15.2 24 15.2 24 15.2C24 15.2 15.9946 15.2 13.9983 15.7493C12.8967 16.0516 12.0292 16.9422 11.7348 18.0732C11.2 20.1231 11.2 24.4 11.2 24.4C11.2 24.4 11.2 28.6768 11.7348 30.7268C12.0292 31.8578 12.8967 32.7484 13.9983 33.0508C15.9946 33.6 24 33.6 24 33.6C24 33.6 32.0054 33.6 34.0016 33.0508C35.1031 32.7484 35.9706 31.8578 36.265 30.7268C36.8 28.6768 36.8 24.4 36.8 24.4C36.8 24.4 36.8 20.1231 36.265 18.0732Z" fill="white"/>
<path d="M21.6 28.8V20.8L28 24.8001L21.6 28.8Z" fill="#FF0000"/>
<path d="M0 88C0 74.7452 10.7452 64 24 64C37.2548 64 48 74.7452 48 88C48 101.255 37.2548 112 24 112C10.7452 112 0 101.255 0 88Z" fill="#31AFD8"/>
<path d="M37.586 83.362C37.4578 86.1653 35.5 90.0032 31.7123 94.8756C27.7967 99.9632 24.4836 102.508 21.7746 102.508C20.0951 102.508 18.6746 100.959 17.5139 97.8599C16.7391 95.0187 15.965 92.1779 15.1898 89.3366C14.3276 86.2387 13.4037 84.6881 12.4147 84.6881C12.1992 84.6881 11.4453 85.1414 10.1543 86.0441L8.8 84.2992C10.2214 83.0508 11.6233 81.8021 13.0025 80.5517C14.8982 78.9144 16.3223 78.0525 17.2708 77.9659C19.5112 77.7503 20.8908 79.282 21.4086 82.5609C21.9682 86.0992 22.3558 88.2995 22.573 89.1606C23.2199 92.0962 23.931 93.5624 24.7071 93.5624C25.3092 93.5624 26.2152 92.6106 27.4228 90.7056C28.628 88.8019 29.2743 87.3533 29.3613 86.3576C29.5337 84.7147 28.8874 83.891 27.4228 83.891C26.7333 83.891 26.0222 84.0498 25.2909 84.3633C26.7067 79.728 29.4108 77.4767 33.4021 77.6052C36.3612 77.6919 37.757 79.6108 37.586 83.362Z" fill="#FFFFFE"/>
<path d="M24 176C37.2548 176 48 165.255 48 152C48 138.745 37.2548 128 24 128C10.7452 128 0 138.745 0 152C0 165.255 10.7452 176 24 176Z" fill="url(#paint2_linear_8_91)"/>
<path fill-rule="evenodd" clip-rule="evenodd" d="M9.60001 142.404C9.60001 139.751 11.7412 137.6 14.4043 137.6H33.5957C36.2491 137.6 38.4 139.741 38.4 142.404V161.596C38.4 164.249 36.2588 166.4 33.5957 166.4H14.4043C11.7509 166.4 9.60001 164.259 9.60001 161.596V142.404ZM25.872 143.073V152.215C25.872 153.17 26.6455 153.944 27.5996 153.944H32.9284C33.8823 153.944 34.656 153.17 34.656 152.215V143.073C34.656 142.118 33.8825 141.344 32.9284 141.344H27.5996C26.6457 141.344 25.872 142.118 25.872 143.073ZM13.344 159.417V143.071C13.344 142.117 14.1177 141.344 15.0716 141.344H20.4004C21.3545 141.344 22.128 142.117 22.128 143.071V159.417C22.128 160.371 21.3543 161.144 20.4004 161.144H15.0716C14.1175 161.144 13.344 160.371 13.344 159.417Z" fill="white"/>
<defs>
<linearGradient id="paint0_linear_8_91" x1="107.355" y1="32.7159" x2="101.809" y2="19.9929" gradientUnits="userSpaceOnUse">
<stop offset="0.18" stop-color="#0052CC"/>
<stop offset="1" stop-color="#2684FF"/>
</linearGradient>
<linearGradient id="paint1_linear_8_91" x1="1956.63" y1="-18635.3" x2="1892.06" y2="-18930.7" gradientUnits="userSpaceOnUse">
<stop offset="0.18" stop-color="#0052CC"/>
<stop offset="1" stop-color="#2684FF"/>
</linearGradient>
<linearGradient id="paint2_linear_8_91" x1="0" y1="128" x2="0" y2="176" gradientUnits="userSpaceOnUse">
<stop stop-color="#0091E6"/>
<stop offset="1" stop-color="#0079BF"/>
</linearGradient>
</defs>
</svg>
